<svg id="Layer_1" data-name="Layer 1" xmlns="http://www.w3.org/2000/svg" viewBox="0 0 315.06 201.65"><defs><style>.cls-1{fill:#e76f51;}.cls-2{fill:#f59a82;}.cls-3{fill:#fbad3a;}</style></defs><path class="cls-1" d="M254.17,421.46c-17-3.68-26.34-14.53-31.44-26.32-.8-1.89-6.09-15.21-6.09-39.54V319.84q0-11.73-1-14.79a9.08,9.08,0,0,0-3.39-4.75,8.93,8.93,0,0,0-5.27-1.68q-9.54,0-17.75,12.55v51.12q0,10.71,2.16,13.57t8.05,3.57v3.68H147v-3.68c4.37-.4,7.47-1.7,9.32-3.87q1.89-2.25,1.89-13.27l-.41-36.47c0-5.25-.37-8.46-.8-9.72-2.49-7.33-11.82-9.13-11.82-9.13s20.12-19.52,44.1-19.52v12.6q8-8,15.31-11.59a35.13,35.13,0,0,1,15.76-3.62q10.09,0,16.76,5.16a24.57,24.57,0,0,1,8.87,12.8q1.77,5.82,1.78,22.35v54.59c.47,12.39,3.44,30.13,16.32,32.94,16.27,3.55,14.42-22.85,32.06-16.27S292.33,429.73,254.17,421.46Z" transform="translate(-145.13 -221.38)"/><path class="cls-1" d="M367.62,379.58v3.58h-57.7v-3.58q7.08-.19,10.51-3.57,2.29-2.29,2.29-12.12l.14-42.3q0-11.52-1-14.45a8.83,8.83,0,0,0-3.47-4.57,9.68,9.68,0,0,0-5.51-1.64,16.38,16.38,0,0,0-8.86,2.73q-4.32,2.73-9.31,9.59l0,53.59q.36,7.32,2.56,9.62,2.63,2.73,10.27,3.13v3.57H249.91v-3.57q7.08-.19,10.5-3.58,2.28-2.28,2.28-12.11l.05-55.34h0V261.65c0-4.58-.37-7.38-.81-8.48-2.53-6.4-12-8-12-8s19.52-16.32,44.78-16.18v73.2q8.74-8,16-11.37a35.86,35.86,0,0,1,15.11-3.33,29.06,29.06,0,0,1,17.09,5q7.11,5,9.43,11.67t2.33,22.59l0,37.14q0,9.83,2.62,12.56C359.09,378.27,362.51,379.32,367.62,379.58Z" transform="translate(-145.13 -221.38)"/><path class="cls-1" d="M428.75,379.07v4.09H371.11v-4.09q7.08-.22,10.5-4.1,2.28-2.61,2.28-13.88L384.1,323h0a30.08,30.08,0,0,0-.76-7.32c-2.47-7.33-11.72-9.13-11.72-9.13s18.91-19.1,43.73-19.52v19.52l.49,54.54q0,11.27,2.63,14.39T428.75,379.07Z" transform="translate(-145.13 -221.38)"/><path class="cls-2" d="M460.19,372.17a13.46,13.46,0,0,1-4.61,10.27,15.85,15.85,0,0,1-11.1,4.24,15.67,15.67,0,0,1-11.05-4.24,13.9,13.9,0,0,1,0-20.59,16.5,16.5,0,0,1,22.2,0A13.64,13.64,0,0,1,460.19,372.17Z" transform="translate(-145.13 -221.38)"/><path class="cls-3" d="M428.25,250.59h0a.48.48,0,0,0,0-1h0a32.82,32.82,0,0,1-27.85-27.85h0a.48.48,0,0,0-.94,0h0a32.83,32.83,0,0,1-27.85,27.85h0a.48.48,0,0,0,0,1h0a32.82,32.82,0,0,1,27.85,27.84h0a.47.47,0,0,0,.94,0h0A32.81,32.81,0,0,1,428.25,250.59Z" transform="translate(-145.13 -221.38)"/><path class="cls-3" d="M385.14,228.52h0a.12.12,0,0,0,0-.23h0a8,8,0,0,1-6.81-6.81h0a.12.12,0,0,0-.23,0h0a8,8,0,0,1-6.8,6.81h0a.12.12,0,0,0,0,.23h0a8,8,0,0,1,6.8,6.8h0a.12.12,0,0,0,.23,0h0A8,8,0,0,1,385.14,228.52Z" transform="translate(-145.13 -221.38)"/><path class="cls-3" d="M387.71,270.67h0a.14.14,0,0,0,0-.28h0a9.49,9.49,0,0,1-8.06-8.06h0a.14.14,0,0,0-.27,0h0a9.49,9.49,0,0,1-8.06,8.06h0a.14.14,0,0,0,0,.28h0a9.49,9.49,0,0,1,8.06,8.05h0a.14.14,0,0,0,.27,0h0A9.49,9.49,0,0,1,387.71,270.67Z" transform="translate(-145.13 -221.38)"/></svg>